<?xml version="1.0" encoding="utf-8"?>
<!-- Generator: Adobe Illustrator 23.0.0, SVG Export Plug-In . SVG Version: 6.00 Build 0)  -->
<svg version="1.1" id="Layer_1" xmlns="http://www.w3.org/2000/svg" xmlns:xlink="http://www.w3.org/1999/xlink" x="0px" y="0px"
	 viewBox="0 0 25.7 22.6" style="enable-background:new 0 0 25.7 22.6;" xml:space="preserve">
<style type="text/css">
	.st0{fill-rule:evenodd;clip-rule:evenodd;fill:#A2A2A2;}
</style>
<title>Fill 1</title>
<g id="Symbols">
	<g id="Header-V0.1" transform="translate(-1690.000000, -99.000000)">
		<g id="Header">
			<g id="Group-3" transform="translate(1690.000000, 99.000000)">
				<path id="Fill-1" class="st0" d="M23.7,8.5c0,4.6-5.2,8.5-10.9,12C7.2,17,2,13,2,8.5C2,5.9,3.1,2.6,6.3,2C6.6,2,6.9,1.9,7.2,1.9
					c2.2,0,4,1.3,4.9,3.6C12.2,5.8,12.5,6,12.9,6c0.4,0,0.6-0.2,0.8-0.5c1.2-3,3.7-3.9,5.8-3.5C22.6,2.6,23.7,5.9,23.7,8.5
					 M19.7,0.4c-2-0.4-5,0.2-6.9,3C11,0.6,8,0,6,0.4C3.4,0.9,0.4,3.3,0.4,8.5c0,5.6,6.2,10,12.1,13.7c0.1,0.1,0.3,0.1,0.4,0.1
					s0.3,0,0.4-0.1c5.8-3.7,12.1-8.1,12.1-13.7C25.4,3.3,22.3,0.9,19.7,0.4"/>
			</g>
		</g>
	</g>
</g>
</svg>
