<?xml version="1.0" encoding="utf-8"?>
<!-- Generator: Adobe Illustrator 23.0.0, SVG Export Plug-In . SVG Version: 6.00 Build 0)  -->
<svg version="1.1" id="Layer_1" xmlns="http://www.w3.org/2000/svg" xmlns:xlink="http://www.w3.org/1999/xlink" x="0px" y="0px"
	 viewBox="0 0 25 22" style="enable-background:new 0 0 25 22;" xml:space="preserve">
<style type="text/css">
	.st0{fill-rule:evenodd;clip-rule:evenodd;fill:#A2A2A2;}
	.st1{fill:none;stroke:#A2A2A2;stroke-width:1.2;stroke-miterlimit:10;}
</style>
<title>Fill 1</title>
<g id="Symbols_1_">
	<g id="Header-V0.1_1_" transform="translate(-1690.000000, -99.000000)">
		<g id="Header_1_">
			<g id="Group-3_1_" transform="translate(1690.000000, 99.000000)">
				<path id="Fill-1_1_" class="st0" d="M49.5,8.1c0,4.6-5.2,8.5-10.9,12c-5.7-3.6-10.9-7.5-10.9-12c0-2.6,1.1-5.8,4.4-6.4
					c0.3-0.1,0.6-0.1,0.9-0.1c2.2,0,4,1.3,4.9,3.6c0.1,0.3,0.4,0.5,0.8,0.5c0.4,0,0.6-0.2,0.8-0.5c1.2-3,3.7-3.9,5.8-3.5
					C48.3,2.3,49.5,5.5,49.5,8.1 M45.4,0c-2-0.4-5,0.2-6.9,3c-1.9-2.9-4.8-3.4-6.8-3c-2.6,0.5-5.7,2.9-5.7,8.1
					c0,5.6,6.2,10,12.1,13.7c0.1,0.1,0.3,0.1,0.4,0.1c0.2,0,0.3,0,0.4-0.1c5.8-3.7,12.1-8.1,12.1-13.7C51.1,2.9,48,0.5,45.4,0"/>
			</g>
		</g>
	</g>
</g>
<line class="st1" x1="13" y1="0" x2="13" y2="21.9"/>
<line class="st1" x1="24" y1="11" x2="2" y2="11"/>
</svg>
